<?xml version="1.0" encoding="utf-8"?>
<!-- Generator: Adobe Illustrator 24.1.2, SVG Export Plug-In . SVG Version: 6.00 Build 0)  -->
<svg version="1.1" id="Layer_1" xmlns="http://www.w3.org/2000/svg" xmlns:xlink="http://www.w3.org/1999/xlink" x="0px" y="0px"
	 viewBox="0 0 14 24" style="enable-background:new 0 0 14 24;" xml:space="preserve">
<g>
	<path d="M2,9c1.1,0,2-0.9,2-2c0-1.7,1.4-3,3-3c1.7,0,3,1.3,3,3c0,1.6-1.3,3-3,3c-1.1,0-2.1,1-2,2.2C5,12.2,5,14,5,14
		c0,1.1,0.9,2,2,2c1.1,0,2-0.9,2-2v-0.3c2.9-0.9,5-3.6,5-6.7c0-3.9-3.1-7-7-7C3.1,0,0,3.1,0,7C0,8.1,0.9,9,2,9z"/>
	<path d="M7,24c1.7,0,3-1.3,3-3c0-1.7-1.3-3-3-3c-1.6,0-3,1.3-3,3C4,22.7,5.4,24,7,24z"/>
</g>
</svg>
